<?xml version="1.0" standalone="no"?>
<!DOCTYPE svg PUBLIC "-//W3C//DTD SVG 20010904//EN"
 "http://www.w3.org/TR/2001/REC-SVG-20010904/DTD/svg10.dtd">
<svg version="1.0" xmlns="http://www.w3.org/2000/svg"
 width="700.000000pt" height="700.000000pt" viewBox="0 0 700.000000 700.000000"
 preserveAspectRatio="xMidYMid meet">
<metadata>
Created by potrace 1.14, written by Peter Selinger 2001-2017
</metadata>
<g transform="translate(0.000000,700.000000) scale(0.100000,-0.100000)"
fill="#000000" stroke="none">
<path d="M6381 6991 c-23 -6 -91 -68 -91 -83 0 -5 -25 -41 -55 -80 -54 -71
-111 -178 -155 -288 -12 -30 -26 -62 -31 -70 -5 -8 -12 -22 -15 -30 -23 -60
-38 -90 -46 -90 -4 0 -8 -8 -8 -18 0 -11 -9 -27 -19 -36 -18 -17 -20 -17 -28
1 -5 10 -9 23 -8 28 4 31 18 123 21 140 3 11 7 54 9 95 3 41 7 104 9 139 3 35
0 75 -5 89 -5 14 -10 41 -11 61 0 20 -3 39 -5 43 -6 11 -53 -15 -88 -48 -39
-37 -93 -80 -176 -141 -78 -57 -139 -109 -139 -120 0 -4 -22 -29 -48 -54 -42
-41 -66 -57 -97 -64 -5 -2 -14 -4 -20 -6 -5 -1 -17 1 -26 5 -20 9 -17 72 7
134 19 50 13 84 -21 118 -29 29 -81 32 -165 9 -30 -8 -68 -18 -85 -21 -53 -9
-138 -35 -200 -59 -33 -14 -78 -29 -100 -34 -22 -6 -115 -60 -207 -120 -175
-115 -318 -201 -335 -201 -5 0 -24 -15 -41 -32 -38 -40 -42 -43 -121 -96 -35
-23 -68 -42 -73 -42 -8 0 -72 -43 -88 -60 -22 -22 -116 -45 -124 -31 -5 8 20
47 51 79 20 21 34 52 29 61 -7 11 22 37 51 45 11 4 36 20 55 36 l33 29 -48 21
c-58 26 -121 25 -192 -3 -27 -10 -50 -18 -50 -17 0 1 -18 -3 -40 -8 -22 -6
-58 -13 -80 -16 -93 -12 -126 -20 -250 -61 l-130 -43 -75 -74 c-49 -49 -89
-79 -115 -88 -22 -7 -74 -30 -115 -50 -41 -21 -120 -56 -175 -79 -55 -23 -109
-46 -120 -50 -48 -21 -82 -32 -91 -30 -12 3 -94 -32 -94 -40 0 -4 -48 -31
-107 -61 -60 -30 -114 -61 -121 -67 -7 -7 -20 -13 -28 -13 -8 0 -14 -4 -14
-10 0 -5 -4 -10 -8 -10 -5 0 -28 -18 -51 -40 -23 -22 -48 -40 -56 -40 -8 0
-15 -4 -15 -10 0 -5 -17 -21 -38 -34 -20 -14 -62 -43 -92 -65 -30 -22 -91 -65
-135 -95 -112 -76 -340 -298 -372 -361 -14 -27 -31 -54 -38 -60 -7 -5 -26 -30
-43 -55 -16 -25 -42 -58 -56 -75 -30 -33 -136 -181 -136 -189 0 -7 -72 -130
-79 -136 -3 -3 -37 -67 -74 -142 -37 -76 -73 -143 -80 -151 -16 -17 -77 -134
-77 -147 0 -6 -11 -27 -24 -48 -32 -48 -126 -304 -167 -452 -51 -186 -86 -310
-109 -385 -38 -124 -49 -169 -55 -220 -3 -27 -8 -72 -11 -100 -2 -27 -7 -70
-10 -95 -4 -37 -15 -290 -17 -365 0 -11 4 -56 8 -100 7 -72 15 -253 17 -390 1
-43 -7 -137 -14 -162 -7 -25 18 -91 55 -146 24 -34 56 -100 71 -147 16 -47 43
-112 61 -145 18 -33 54 -100 80 -150 76 -143 112 -194 200 -285 45 -47 105
-116 133 -155 50 -70 89 -110 127 -131 115 -65 192 -101 310 -147 147 -57 365
-121 450 -132 68 -10 300 -10 530 -1 161 6 202 5 265 -10 41 -9 84 -17 95 -18
43 -5 132 -30 165 -46 72 -36 269 -75 437 -86 163 -11 536 -8 576 5 19 7 45
14 58 16 104 20 130 24 174 30 51 6 104 19 140 35 134 57 258 118 295 144 25
18 68 46 95 61 28 15 77 54 110 85 33 32 83 74 110 95 28 20 83 67 124 103 41
37 78 68 82 70 9 4 142 177 189 247 19 28 36 52 40 55 7 6 67 86 90 120 8 12
20 28 25 34 40 44 83 107 106 156 23 50 72 207 85 275 2 11 6 31 9 45 8 37 31
161 40 215 2 11 18 103 35 205 18 102 34 203 36 225 2 22 6 56 9 75 6 43 5
278 -1 465 -11 299 -9 391 11 518 10 63 11 108 3 113 -8 5 -3 294 6 344 2 14
7 54 11 90 3 36 8 81 10 100 3 19 7 58 10 85 4 28 11 82 16 120 6 39 12 93 15
120 5 63 25 223 30 250 2 11 11 65 19 120 18 120 19 124 38 200 9 33 18 76 21
95 3 19 8 45 10 56 2 12 7 39 10 60 18 112 38 199 65 280 24 72 42 140 46 174
0 3 3 10 7 15 3 6 11 30 18 55 22 85 73 215 126 322 29 59 64 145 78 191 14
46 46 130 71 188 54 121 73 172 80 208 3 14 7 37 11 51 3 14 8 52 11 85 5 55
2 70 -36 160 -23 55 -48 109 -56 122 -20 30 -65 51 -94 44z"/>
</g>
</svg>
